# xmcd
#
# Track frame offsets: 
#        150
#        16693
#        36856
#        56494
#        77385
#        99177
#        115083
#        131064
#        151315
#        167708
#        186120
#        205660
#        228259
#        246477
#
# Disc length: 3500 seconds
#
# Revision: 0
# Processed by: cddbd v1.5.2PL0 Copyright (c) Steve Scherf et al.
# Submitted via: ExactAudioCopyFreeDBPlugin 1.0
#
DISCID=a40daa0e
DTITLE=Sara Bareilles - The Blessed Unrest
DYEAR=2013
DGENRE=Pop
TTITLE0=Brave
TTITLE1=Chasing The Sun
TTITLE2=Hercules
TTITLE3=Manhattan
TTITLE4=Satellite Call
TTITLE5=Little Black Dress
TTITLE6=Cassiopeia
TTITLE7=1000 Times
TTITLE8=I Choose You
TTITLE9=Eden
TTITLE10=Islands
TTITLE11=December
TTITLE12=Beautiful Girl
TTITLE13=Parking Lot
EXTD=
EXTT0=
EXTT1=
EXTT2=
EXTT3=
EXTT4=
EXTT5=
EXTT6=
EXTT7=
EXTT8=
EXTT9=
EXTT10=
EXTT11=
EXTT12=
EXTT13=
PLAYORDER=
